<?xml version="1.0" encoding="UTF-8"?>
<svg id="Layer_1" xmlns="http://www.w3.org/2000/svg" viewBox="0 0 425.2 425.2">
  <defs>
    <style>
      .cls-1 {
        fill: #f9b000;
        fill-rule: evenodd;
      }
    </style>
  </defs>
  <g>
    <path class="cls-1" d="M159.41,95.49c6.87,1,10.6-10.31,4.28-15.53-7.08-5.85-16.35,13.21-4.28,15.53h0Z"/>
    <path class="cls-1" d="M181.4,81.02c8.68,1.04,10.29-11.32,3.29-14.88-8.97-4.53-13.58,12.61-3.29,14.88h0Z"/>
    <path class="cls-1" d="M80.8,177.43c3.97-1.55,6.38-4.88,2.53-8.95-3.85-4.07-4.74-3.56-8.49-2.74-15.28,4.36-1.92,13.94,5.96,11.69h0Z"/>
    <path class="cls-1" d="M289.96,118.58c2.58,1.14,9.58.39,12.02-1.33,3.49-2.45,1.29-6.98,3.67-8.63,3.24-2.24,5.79-5.87,4.11-10.3-1.5-3.97-5.6-6.65-8.83-9.11-4.28-3.26-7.11-3.97-12.46-1.58-3.97,1.77-9.08,9.43-8.34,19.07.5,5.13,5.31,9.9,9.82,11.89h0Z"/>
    <path class="cls-1" d="M324.42,158.73c12.58,0,11-23.65-1.09-16.1-7.48,4.68-11.21,16.1,1.09,16.1h0Z"/>
    <path class="cls-1" d="M73.45,211.42c3.01,1.25,6.74,1.38,9.37-.82,5.58-4.65-.83-8.5-3.18-9.37-2.82-1.04-10.17-.15-11.39,3.72-.95,3.01,2.95,5.54,5.21,6.48h0Z"/>
    <path class="cls-1" d="M112.03,324.29c0,6.61,8.4,17.6,18.08,16.22s14.69-6.44,15.61-11c0,0,1.12-4.5.49-8.71-3.57-23.67-34.18-19.12-34.18,3.48h0Z"/>
    <path class="cls-1" d="M365.59,210.64s1.92-9.11-6.07-11.37c-5.25-1.48-13.41,1.67-13.41,7.82-.18,4.89,17.55,12.11,19.49,3.55h0Z"/>
    <path class="cls-1" d="M371.92,247.33c-2.27-2.47-5.3-2.9-9.25-2.04-4.19.9-7.1,4.05-8.03,6.59-.93,2.54-.08,9.99,15.77,5.38,4.7-1.2,4.74-6.68,1.51-9.92h0Z"/>
    <path class="cls-1" d="M339.19,230.8c-2.33-.08-3.05-.21-4.59,1.83-1.32,1.75-1.82,4.04-1.63,6.2.34,3.82,2.99,7.41,7.11,7.37,8.6-.1,8.99-15.4-.9-15.4h0Z"/>
    <path class="cls-1" d="M286.19,158.33c-5.38,1.7,2.4,9.41,6.08,7.63,7.18-4.49.14-9.6-6.08-7.63h0Z"/>
    <path class="cls-1" d="M293.74,299.04c-2.48.14-3.87-.22-6,2.03-1.28,1.36-1.99,3.14-1.88,5.02.28,4.61,4.74,7.97,9.17,7.92,4.09-.05,9.06-4.13,8.84-8.98-.21-4.85-4.84-5.98-10.13-5.98h0Z"/>
    <path class="cls-1" d="M322.84,267.86s-.02.01-.04.02c-3.57,1.85-4.11-2.54-4.17-3.14v-.07h-.01c-.62-2.44-5.86-4.25-7.66-4.32-2.41-.09-8.91-1.87-12.83-7.04-3.92-5.16-1.69-8.55,2.14-11.22,3.83-2.68,2.05-2.85,6.86-4.72,4.81-1.87,4.28-2.58,6.24-4.55,1.96-1.96,4.36-4.19,9-5.25,4.63-1.07,5.62-2.32,6.86-3.3,1.25-.98,2.94-4.02-2.58-4.73-5.52-.71-9.17-3.83-9.89-5.7-.71-1.87-1.43-7.66-8.64-4.55-9.26,3.29-15.23,1.87-18-1.07-2.76-2.94-7.93-14.7-8.55-19.51-.62-4.81-.89-5.26-6.5-14.79-5.61-9.53,1.25-17.1,5.25-22.27,4.01-5.17,10.51-7.39,17.11-11.05,5.26-3.47,3.47-11.05-4.01-13.9-13.54-6.06-14.07,5.61-15.05,11.49-1.87,5.97-6.24,6.15-8.2,5.61-1.96-.54-4.54-.8-7.75,3.92-4.55,6.5-19.42-5.26-21.91-7.48-2.5-2.23-6.68-6.06-5.97-11.05.71-4.99.62-4.72-.36-7.57-.18-1.34-1.07-2.32-.8-4.9,1.87-9.62,10.87-2.31,12.74-16.3-1.87-15.95-14.43-11.31-18.71-7.48-4.27,3.83-4.54,7.3-.18,12.91,4.36,5.61,4.72,6.86,3.21,9.27-1.51,2.41-1.78,1.33-1.87,5.7-1.78,10.69-8.55,12.47-8.55,12.47-5.08,1.51-13.46-.62-18.09-2.05-4.63-1.43-7.84-6.86-9.44-12.65-1.6-5.79.09-8.02-7.75-11.4-7.84-3.39-10.69,3.47-7.13,6.5,3.56,3.03,5.43.8,5.88,6.77.44,5.97.98,4.99,3.47,9.17,2.49,4.19-4.01,5.44-9.44,6.51-5.43,1.07-9.8,5.61-12.29,8.1-2.49,2.49-6.95,4.28-9.98,4.63-3.03.35-5.79,1.25-8.82,2.94-3.03,1.69-9.35-1.25-12.38-5.52-3.03-4.27-10.16-9.98-10.16-9.98-6.41-6.59.18-9.18-4.54-13.9-7.84-5.34-12.92,4.19-12.02,8.55.89,4.36,5.34,3.74,6.15,6.86.8,3.12-2.49,3.92-.45,7.58,2.05,3.65,3.47,3.3,15.23,8.28,11.76,4.99,5.52,15.23,3.39,20.13-2.14,4.9-2.14,6.06-7.93,6.41-5.79.36-11.67-2.05-15.32-4.37-3.65-2.32-9.44-1.78-8.37,2.67,1.07,4.45,6.77,4.01,11.13,4.27,4.37.27,8.55,1.87,13.66,3.94,5.11,2.07,1.12,9.86.5,14.05-.62,4.18-9.35,6.33-19.99,4.33-10.64-2-12.88.57-13.05,3.5-.18,2.94,1.25,3.74,19.51,1.16,18.26-2.58,15.77,12.12,17.46,20.4.8,3.3.89,6.14,1.07,9.71.12,2.33-2.49,7.12-5.52,8.19-1.43.51-7.9-1.78-10.69-1.24-3.74.71-2.6.36-6.06.36-4.46,0-4.81-.36-7.95,1.29-1.86.97-2.11,1.47-5.05,1.74-2.94.27-6.94.04-11.23,2.67-4.63,2.85-7.84.18-7.84.18-6.59-2.14-9.8,2.67-5.52,8.2,2.32,1.96,3.56,4.66,8.2,2.85,4.1-1.6,6.06-2.76,11.94-7.12,5.88-4.37,8.65-3.24,16.04-3.03,6.23.18,6.95-.8,15.5,3.92,8.55,4.72,3.74,4.81,1.87,6.15-1.87,1.33-3.12,3.3-2.05,8.81,1.07,5.52,7.22,5.7,13.63,2.14,6.42-3.57,8.2,5.52,8.55,8.81.36,3.3,1.25,9.89,8.55,14.17,7.31,4.27,21.38-2.31,29.49-4.19,8.11-1.87,13.45.89,16.57,5.97,3.11,5.08-1.78,8.73,0,16.93,2.41,8.46.44,11.85,3.56,20.76,3.12,8.9,10.78,3.38,13.63-.8,2.85-4.19,1.87-11.14.36-14.07-1.51-2.94-2.05-2.41-2.58-11.58,1.02-7.15-2.1-8.22-2.11-10.75-.01-2.53.96-3.95,4.7-6.71,3.74-2.76,4.36-3.65,14.79-5.52,10.42-1.87,15.5,3.03,21.74,10.25,6.24,7.22,18.53,2.85,18.53,2.85,9.44-3.2,1.87-10.15-.71-14.61-2.59-4.46,1.34-6.33,9.18-7.66,7.84-1.33,9.89-5.52,8.46-11.14-1.43-5.61.45-4.72,1.69-7.66,1.25-2.94,1.78-2.58,5.17-2.41,3.39.18,10.69,4.37,13.18,6.77,1.39,1.34,2.65,3.2,4.27,3.96.22.18.66.32,1.44.4,8.37-.04,4.55,2.96,6.46,5.7.56.99,1.6,1.91,3.25,2.6,5.94,2.5,15.01,2.58,9.63-6.15-3.26-4.82-7.63-4.87-10.49-3.09h0Z"/>
    <path class="cls-1" d="M219.2,348.63c-1.79-1.47-2.49-2.63-5.51-2.31-1.82.2-3.54,1.08-4.77,2.55-3.01,3.61-2.28,8.96.77,11.74,2.82,2.56,9.06,2.68,12.28-1.08,3.22-3.75.85-7.54-2.77-10.91h0Z"/>
  </g>
  <path class="cls-1" d="M212.89,403.27c-105.42,0-190.88-85.46-190.88-190.88S107.47,21.51,212.89,21.51s190.88,85.46,190.88,190.88-85.46,190.88-190.88,190.88h0ZM212.6,0C95.19,0,0,95.18,0,212.6s95.19,212.6,212.6,212.6,212.6-95.19,212.6-212.6S330.01,0,212.6,0h0Z"/>
</svg>