<?xml version="1.0" encoding="UTF-8"?>
<svg id="Layer_1" xmlns="http://www.w3.org/2000/svg" viewBox="0 0 425.2 425.19">
  <defs>
    <style>
      .cls-1 {
        fill: #f9b000;
      }
    </style>
  </defs>
  <path class="cls-1" d="M218.16.07c117.37,3.07,210.03,100.71,206.96,218.09-3.08,117.38-100.71,210.03-218.09,206.96C89.66,422.04-3,324.41.07,207.03,3.15,89.66,100.79-3,218.16.07M217.59,22.02C112.34,19.27,24.78,102.36,22.03,207.6c-2.76,105.25,80.33,192.81,185.58,195.57,105.25,2.76,192.81-80.33,195.56-185.58,2.75-105.25-80.33-192.81-185.58-195.56"/>
  <path class="cls-1" d="M232.21,143.97c-8.42,7.98-5.11,26.06,7.96,39.82,13.07,13.77,30.94,18.02,39.35,10.04,8.42-7.98,5.45-26.38-7.62-40.15-13.07-13.77-31.28-17.69-39.7-9.71M338.22,92.85c27.7,29.04,37.36,60.75,37.36,60.75,0,0,5.51,15.21-11.83,15.21-14.24,0-42.47.25-42.47.25,0,0-13.45-1.03-14.21,10.38-.95,14.35-.56,26.36-.56,26.36,0,0,.41,12.9,8.76,22.73l43.8,46.15s11.41,9.22,2.13,25.08c-11.44,19.56-41.39,61.15-99.58,78.4-12.94,3.84-14.08-6.65-13.64-13.72.28-4.54,5.25-106.3,5.25-106.3,0,0,3.26-16.8-9.58-30.33-13.78-14.52-22.33-24.05-22.33-24.05,0,0-9.75-9.76-23.53-24.28-12.84-13.53-29.79-11.15-29.79-11.15,0,0-101.87-.37-106.43-.32-7.08.07-17.49-1.61-12.98-14.34,20.28-57.21,63.38-84.94,83.51-95.34,16.32-8.43,24.93,3.44,24.93,3.44l43.8,46.15c9.38,8.85,22.24,9.93,22.24,9.93,0,0,11.97,1.01,26.35.82,11.44-.16,11.11-13.64,11.11-13.64,0,0,1.73-28.18,2.47-42.41.91-17.31,15.81-11.02,15.81-11.02,0,0,31.87,12.06,59.42,41.24"/>
</svg>