<?xml version="1.0" encoding="UTF-8"?>
<svg id="Layer_1" xmlns="http://www.w3.org/2000/svg" viewBox="0 0 425.2 425.19">
  <defs>
    <style>
      .cls-1 {
        fill: #f9b000;
      }
    </style>
  </defs>
  <path class="cls-1" d="M217.59,22.03C112.34,19.27,24.78,102.36,22.03,207.61c-2.76,105.25,80.33,192.81,185.58,195.56,105.25,2.76,192.81-80.33,195.56-185.58,2.76-105.25-80.33-192.8-185.58-195.56h0ZM218.16.07c117.37,3.07,210.03,100.71,206.96,218.09-3.08,117.37-100.72,210.03-218.09,206.96C89.66,422.04-3,324.41.07,207.03,3.15,89.66,100.79-3,218.16.07h0Z"/>
  <path class="cls-1" d="M201.95,249.39c-12.68-18.77-18.55-41.48-16.52-64.08,22.6-1.61,45.21,4.66,63.77,17.71-9.92,20.38-26.66,36.83-47.25,46.37h0ZM380.78,209.86c-1.85,11.5-5.78,22.88-11.96,33.57-27.2,47.11-87.43,63.25-134.54,36.05-5.69-3.29-10.93-7.06-15.7-11.24,22.82-6.12,42.76-19.25,57.37-36.95.62.99,1.24,2,1.83,3.02,6.17,10.69,10.11,22.06,11.96,33.57,1.32-15.65-.64-31.68-6.14-47.03,11.36-17.53,17.96-38.43,17.96-60.87,0-61.91-50.18-112.09-112.09-112.09-23.77,0-45.8,7.4-63.94,20.02,10.89-4.15,22.7-6.43,35.05-6.43,54.39,0,98.49,44.1,98.49,98.5,0,6.56-.65,12.97-1.87,19.17-16.7-16.67-38.03-27.37-60.65-31.17.54-1.02,1.1-2.04,1.68-3.05,6.17-10.69,14.05-19.78,23.09-27.14-14.19,6.67-27.08,16.37-37.62,28.79-20.86-1.07-42.27,3.66-61.71,14.88-53.61,30.95-71.98,99.51-41.03,153.12,11.89,20.59,29.31,35.97,49.31,45.36-9.04-7.36-16.92-16.45-23.09-27.14-27.2-47.11-11.06-107.34,36.05-134.54,5.68-3.28,11.55-5.92,17.53-7.96-6.1,22.8-4.7,46.62,3.31,68.1-1.16.04-2.32.07-3.49.07-12.35,0-24.16-2.28-35.05-6.42,12.88,8.96,27.72,15.27,43.75,18.19,9.5,18.62,24.31,34.81,43.76,46.04,53.61,30.95,122.16,12.58,153.11-41.03,11.88-20.59,16.49-43.38,14.63-65.39h0Z"/>
</svg>